<svg xmlns="http://www.w3.org/2000/svg"  viewBox="0 0 50 50" width="25px" height="25px"><path d="M32.011,9.986c7.385,0,7.989,0.646,7.989,8.01l-0.043,14.013c0.022,7.342-0.563,7.97-7.948,7.992H17.996	c-7.494-0.022-7.97-0.498-7.992-7.992L9.982,18.017c0.043-7.515,0.683-7.992,7.029-8.035L32.011,9.986z M37,15.413V15h-6.785	l-4.768,12.096L19.755,15h-6.68v0.413l1.533,2.065c0.076,0.09,0.117,0.203,0.117,0.32v12.484c0,0.183-0.063,0.36-0.179,0.502	l-2.296,2.84V34h6.6v-0.375l-2.298-2.857c-0.115-0.141-0.177-0.318-0.177-0.499V19.44L23.226,34h1.273l0.006-0.016L30.4,19.03	v12.285c0,0.132-0.053,0.259-0.148,0.354l-2.327,1.956V34H37v-0.375l-1.502-1.956c-0.095-0.094-0.148-0.221-0.148-0.354V17.581	c0-0.132,0.053-0.259,0.148-0.354L37,15.413z"/></svg>